{
	"asset":{
		"generator":"Khronos glTF Blender I/O v3.6.28",
		"version":"2.0"
	},
	"scene":0,
	"scenes":[
		{
			"name":"Scene",
			"nodes":[
				8
			]
		}
	],
	"nodes":[
		{
			"name":"Bone.006",
			"rotation":[
				-0.009512140415608883,
				-1.192039178476989e-07,
				-1.1339360561635203e-09,
				0.9999547600746155
			],
			"translation":[
				-2.821923933337355e-15,
				0.17582274973392487,
				0
			]
		},
		{
			"children":[
				0
			],
			"name":"Bone.001",
			"rotation":[
				-0.030398042872548103,
				7.108712151370454e-15,
				-7.247456412784459e-09,
				0.9995378851890564
			],
			"translation":[
				-2.431906765741165e-15,
				0.18386556208133698,
				2.0894392882553348e-09
			]
		},
		{
			"children":[
				1
			],
			"name":"Bone.002",
			"rotation":[
				-0.021538671106100082,
				-1.3894888555986574e-14,
				-5.135219804941471e-09,
				0.9997680187225342
			],
			"scale":[
				1,
				1.0000001192092896,
				1.0000001192092896
			],
			"translation":[
				2.8670048267352417e-16,
				0.17720401287078857,
				5.587935447692871e-09
			]
		},
		{
			"children":[
				2
			],
			"name":"Bone.003",
			"rotation":[
				0.012282120995223522,
				2.85817275066675e-14,
				2.928285391945451e-09,
				0.9999245405197144
			],
			"scale":[
				1,
				1.0000001192092896,
				0.9999998807907104
			],
			"translation":[
				1.1102230246251565e-16,
				0.16487827897071838,
				4.6566128730773926e-09
			]
		},
		{
			"children":[
				3
			],
			"name":"Bone",
			"rotation":[
				0.009257746860384941,
				1.192041523268017e-07,
				1.1036128677588408e-09,
				0.9999571442604065
			],
			"scale":[
				1,
				0.9999998807907104,
				1
			],
			"translation":[
				0,
				0.16687138378620148,
				-7.450580596923828e-09
			]
		},
		{
			"name":"Bone.004",
			"rotation":[
				-0.6937360167503357,
				-0.14171817898750305,
				-0.6635105013847351,
				0.2416611909866333
			],
			"scale":[
				1.000000238418579,
				1,
				1.0000001192092896
			],
			"translation":[
				0,
				0.16687138378620148,
				-7.450580596923828e-09
			]
		},
		{
			"name":"Bone.005",
			"rotation":[
				-0.6920596957206726,
				0.14958031475543976,
				0.6617118716239929,
				0.2466101199388504
			],
			"scale":[
				1,
				0.9999999403953552,
				0.9999999403953552
			],
			"translation":[
				0,
				0.16687138378620148,
				-7.450580596923828e-09
			]
		},
		{
			"mesh":0,
			"name":"Peener",
			"skin":0
		},
		{
			"children":[
				7,
				4,
				5,
				6
			],
			"name":"Armature",
			"scale":[
				0.4530624449253082,
				0.31763550639152527,
				0.46565142273902893
			],
			"translation":[
				0,
				0.008555114269256592,
				-0.036632172763347626
			]
		}
	],
	"animations":[
		{
			"channels":[
				{
					"sampler":0,
					"target":{
						"node":4,
						"path":"translation"
					}
				},
				{
					"sampler":1,
					"target":{
						"node":4,
						"path":"rotation"
					}
				},
				{
					"sampler":2,
					"target":{
						"node":4,
						"path":"scale"
					}
				},
				{
					"sampler":3,
					"target":{
						"node":3,
						"path":"translation"
					}
				},
				{
					"sampler":4,
					"target":{
						"node":3,
						"path":"rotation"
					}
				},
				{
					"sampler":5,
					"target":{
						"node":3,
						"path":"scale"
					}
				},
				{
					"sampler":6,
					"target":{
						"node":2,
						"path":"translation"
					}
				},
				{
					"sampler":7,
					"target":{
						"node":2,
						"path":"rotation"
					}
				},
				{
					"sampler":8,
					"target":{
						"node":2,
						"path":"scale"
					}
				},
				{
					"sampler":9,
					"target":{
						"node":1,
						"path":"translation"
					}
				},
				{
					"sampler":10,
					"target":{
						"node":1,
						"path":"rotation"
					}
				},
				{
					"sampler":11,
					"target":{
						"node":1,
						"path":"scale"
					}
				},
				{
					"sampler":12,
					"target":{
						"node":0,
						"path":"translation"
					}
				},
				{
					"sampler":13,
					"target":{
						"node":0,
						"path":"rotation"
					}
				},
				{
					"sampler":14,
					"target":{
						"node":0,
						"path":"scale"
					}
				},
				{
					"sampler":15,
					"target":{
						"node":5,
						"path":"translation"
					}
				},
				{
					"sampler":16,
					"target":{
						"node":5,
						"path":"rotation"
					}
				},
				{
					"sampler":17,
					"target":{
						"node":5,
						"path":"scale"
					}
				},
				{
					"sampler":18,
					"target":{
						"node":6,
						"path":"translation"
					}
				},
				{
					"sampler":19,
					"target":{
						"node":6,
						"path":"rotation"
					}
				},
				{
					"sampler":20,
					"target":{
						"node":6,
						"path":"scale"
					}
				}
			],
			"name":"ArmatureAction",
			"samplers":[
				{
					"input":8,
					"interpolation":"STEP",
					"output":9
				},
				{
					"input":10,
					"interpolation":"LINEAR",
					"output":11
				},
				{
					"input":10,
					"interpolation":"LINEAR",
					"output":12
				},
				{
					"input":8,
					"interpolation":"STEP",
					"output":13
				},
				{
					"input":10,
					"interpolation":"LINEAR",
					"output":14
				},
				{
					"input":8,
					"interpolation":"STEP",
					"output":15
				},
				{
					"input":8,
					"interpolation":"STEP",
					"output":16
				},
				{
					"input":10,
					"interpolation":"LINEAR",
					"output":17
				},
				{
					"input":8,
					"interpolation":"STEP",
					"output":18
				},
				{
					"input":8,
					"interpolation":"STEP",
					"output":19
				},
				{
					"input":10,
					"interpolation":"LINEAR",
					"output":20
				},
				{
					"input":8,
					"interpolation":"STEP",
					"output":21
				},
				{
					"input":8,
					"interpolation":"STEP",
					"output":22
				},
				{
					"input":8,
					"interpolation":"STEP",
					"output":23
				},
				{
					"input":10,
					"interpolation":"LINEAR",
					"output":24
				},
				{
					"input":8,
					"interpolation":"STEP",
					"output":25
				},
				{
					"input":8,
					"interpolation":"STEP",
					"output":26
				},
				{
					"input":8,
					"interpolation":"STEP",
					"output":27
				},
				{
					"input":8,
					"interpolation":"STEP",
					"output":28
				},
				{
					"input":8,
					"interpolation":"STEP",
					"output":29
				},
				{
					"input":8,
					"interpolation":"STEP",
					"output":30
				}
			]
		}
	],
	"materials":[
		{
			"doubleSided":true,
			"name":"Material.001",
			"pbrMetallicRoughness":{
				"baseColorFactor":[
					0.799712061882019,
					0.10005281120538712,
					0,
					1
				],
				"metallicFactor":0,
				"roughnessFactor":0.41056913137435913
			}
		}
	],
	"meshes":[
		{
			"name":"Peener.001",
			"primitives":[
				{
					"attributes":{
						"COLOR_0":0,
						"POSITION":1,
						"NORMAL":2,
						"TEXCOORD_0":3,
						"JOINTS_0":4,
						"WEIGHTS_0":5
					},
					"indices":6,
					"material":0
				}
			]
		}
	],
	"skins":[
		{
			"inverseBindMatrices":7,
			"joints":[
				4,
				3,
				2,
				1,
				0,
				5,
				6
			],
			"name":"Armature"
		}
	],
	"accessors":[
		{
			"bufferView":0,
			"componentType":5123,
			"count":21918,
			"normalized":true,
			"type":"VEC4"
		},
		{
			"bufferView":1,
			"componentType":5126,
			"count":21918,
			"max":[
				0.07674228399991989,
				0.31436964869499207,
				0.0178619883954525
			],
			"min":[
				-0.07680772244930267,
				0.0023995572701096535,
				-0.09803891181945801
			],
			"type":"VEC3"
		},
		{
			"bufferView":2,
			"componentType":5126,
			"count":21918,
			"type":"VEC3"
		},
		{
			"bufferView":3,
			"componentType":5126,
			"count":21918,
			"type":"VEC2"
		},
		{
			"bufferView":4,
			"componentType":5121,
			"count":21918,
			"type":"VEC4"
		},
		{
			"bufferView":5,
			"componentType":5126,
			"count":21918,
			"type":"VEC4"
		},
		{
			"bufferView":6,
			"componentType":5123,
			"count":127698,
			"type":"SCALAR"
		},
		{
			"bufferView":7,
			"componentType":5126,
			"count":7,
			"type":"MAT4"
		},
		{
			"bufferView":8,
			"componentType":5126,
			"count":2,
			"max":[
				4
			],
			"min":[
				0.03333333333333333
			],
			"type":"SCALAR"
		},
		{
			"bufferView":9,
			"componentType":5126,
			"count":2,
			"type":"VEC3"
		},
		{
			"bufferView":10,
			"componentType":5126,
			"count":120,
			"max":[
				4
			],
			"min":[
				0.03333333333333333
			],
			"type":"SCALAR"
		},
		{
			"bufferView":11,
			"componentType":5126,
			"count":120,
			"type":"VEC4"
		},
		{
			"bufferView":12,
			"componentType":5126,
			"count":120,
			"type":"VEC3"
		},
		{
			"bufferView":13,
			"componentType":5126,
			"count":2,
			"type":"VEC3"
		},
		{
			"bufferView":14,
			"componentType":5126,
			"count":120,
			"type":"VEC4"
		},
		{
			"bufferView":15,
			"componentType":5126,
			"count":2,
			"type":"VEC3"
		},
		{
			"bufferView":16,
			"componentType":5126,
			"count":2,
			"type":"VEC3"
		},
		{
			"bufferView":17,
			"componentType":5126,
			"count":120,
			"type":"VEC4"
		},
		{
			"bufferView":18,
			"componentType":5126,
			"count":2,
			"type":"VEC3"
		},
		{
			"bufferView":19,
			"componentType":5126,
			"count":2,
			"type":"VEC3"
		},
		{
			"bufferView":20,
			"componentType":5126,
			"count":120,
			"type":"VEC4"
		},
		{
			"bufferView":21,
			"componentType":5126,
			"count":2,
			"type":"VEC3"
		},
		{
			"bufferView":22,
			"componentType":5126,
			"count":2,
			"type":"VEC3"
		},
		{
			"bufferView":23,
			"componentType":5126,
			"count":2,
			"type":"VEC4"
		},
		{
			"bufferView":24,
			"componentType":5126,
			"count":120,
			"type":"VEC3"
		},
		{
			"bufferView":25,
			"componentType":5126,
			"count":2,
			"type":"VEC3"
		},
		{
			"bufferView":26,
			"componentType":5126,
			"count":2,
			"type":"VEC4"
		},
		{
			"bufferView":27,
			"componentType":5126,
			"count":2,
			"type":"VEC3"
		},
		{
			"bufferView":28,
			"componentType":5126,
			"count":2,
			"type":"VEC3"
		},
		{
			"bufferView":29,
			"componentType":5126,
			"count":2,
			"type":"VEC4"
		},
		{
			"bufferView":30,
			"componentType":5126,
			"count":2,
			"type":"VEC3"
		}
	],
	"bufferViews":[
		{
			"buffer":0,
			"byteLength":175344,
			"byteOffset":0,
			"target":34962
		},
		{
			"buffer":0,
			"byteLength":263016,
			"byteOffset":175344,
			"target":34962
		},
		{
			"buffer":0,
			"byteLength":263016,
			"byteOffset":438360,
			"target":34962
		},
		{
			"buffer":0,
			"byteLength":175344,
			"byteOffset":701376,
			"target":34962
		},
		{
			"buffer":0,
			"byteLength":87672,
			"byteOffset":876720,
			"target":34962
		},
		{
			"buffer":0,
			"byteLength":350688,
			"byteOffset":964392,
			"target":34962
		},
		{
			"buffer":0,
			"byteLength":255396,
			"byteOffset":1315080,
			"target":34963
		},
		{
			"buffer":0,
			"byteLength":448,
			"byteOffset":1570476
		},
		{
			"buffer":0,
			"byteLength":8,
			"byteOffset":1570924
		},
		{
			"buffer":0,
			"byteLength":24,
			"byteOffset":1570932
		},
		{
			"buffer":0,
			"byteLength":480,
			"byteOffset":1570956
		},
		{
			"buffer":0,
			"byteLength":1920,
			"byteOffset":1571436
		},
		{
			"buffer":0,
			"byteLength":1440,
			"byteOffset":1573356
		},
		{
			"buffer":0,
			"byteLength":24,
			"byteOffset":1574796
		},
		{
			"buffer":0,
			"byteLength":1920,
			"byteOffset":1574820
		},
		{
			"buffer":0,
			"byteLength":24,
			"byteOffset":1576740
		},
		{
			"buffer":0,
			"byteLength":24,
			"byteOffset":1576764
		},
		{
			"buffer":0,
			"byteLength":1920,
			"byteOffset":1576788
		},
		{
			"buffer":0,
			"byteLength":24,
			"byteOffset":1578708
		},
		{
			"buffer":0,
			"byteLength":24,
			"byteOffset":1578732
		},
		{
			"buffer":0,
			"byteLength":1920,
			"byteOffset":1578756
		},
		{
			"buffer":0,
			"byteLength":24,
			"byteOffset":1580676
		},
		{
			"buffer":0,
			"byteLength":24,
			"byteOffset":1580700
		},
		{
			"buffer":0,
			"byteLength":32,
			"byteOffset":1580724
		},
		{
			"buffer":0,
			"byteLength":1440,
			"byteOffset":1580756
		},
		{
			"buffer":0,
			"byteLength":24,
			"byteOffset":1582196
		},
		{
			"buffer":0,
			"byteLength":32,
			"byteOffset":1582220
		},
		{
			"buffer":0,
			"byteLength":24,
			"byteOffset":1582252
		},
		{
			"buffer":0,
			"byteLength":24,
			"byteOffset":1582276
		},
		{
			"buffer":0,
			"byteLength":32,
			"byteOffset":1582300
		},
		{
			"buffer":0,
			"byteLength":24,
			"byteOffset":1582332
		}
	],
	"buffers":[
		{
			"byteLength":1582356,
			"uri":"data:application/octet-stream;base64,"
		}
	]
}
